<?xml version="1.0" encoding="UTF-8"?>
<svg xmlns="http://www.w3.org/2000/svg" width="1300" height="850" viewBox="0 0 1300 850">
  <defs>
    <style>
      .title { font-family: Arial, sans-serif; font-size: 22px; font-weight: bold; fill: #333; text-anchor: middle; }
      .subtitle { font-family: Arial, sans-serif; font-size: 12px; fill: #666; text-anchor: middle; }
      .section-title { font-family: Arial, sans-serif; font-size: 14px; font-weight: bold; fill: #333; text-anchor: middle; }
      .node-text { font-family: Arial, sans-serif; font-size: 11px; fill: white; text-anchor: middle; dominant-baseline: middle; }
      .node-text-en { font-family: Arial, sans-serif; font-size: 9px; fill: white; text-anchor: middle; dominant-baseline: middle; }
      .legend-text { font-family: Arial, sans-serif; font-size: 10px; fill: #333; text-anchor: start; }
      .note-text { font-family: Arial, sans-serif; font-size: 9px; fill: #666; text-anchor: start; }
      .arrow { stroke: #666; stroke-width: 1.5; fill: none; marker-end: url(#arrowhead); }
      .optional-arrow { stroke: #999; stroke-width: 1.5; stroke-dasharray: 4,4; fill: none; marker-end: url(#arrowhead); }
    </style>
    <marker id="arrowhead" markerWidth="8" markerHeight="6" refX="8" refY="3" orient="auto">
      <polygon points="0 0, 8 3, 0 6" fill="#666"/>
    </marker>
    <filter id="shadow" x="-10%" y="-10%" width="120%" height="120%">
      <feDropShadow dx="1" dy="1" stdDeviation="1" flood-color="#00000030"/>
    </filter>
  </defs>
  
  <!-- 标题 -->
  <text x="650" y="35" class="title">用户消费分润流程图</text>
  <text x="650" y="50" class="subtitle">User Consumption Profit Distribution Process</text>
  
  <!-- 订单处理 Section -->
  <text x="120" y="85" class="section-title">订单处理</text>
  
  <rect x="70" y="100" width="100" height="40" rx="6" fill="#4A90E2" filter="url(#shadow)"/>
  <text x="120" y="115" class="node-text">用户下单</text>
  <text x="120" y="127" class="node-text-en">User Order</text>
  
  <rect x="70" y="160" width="100" height="40" rx="6" fill="#4A90E2" filter="url(#shadow)"/>
  <text x="120" y="175" class="node-text">订单实现</text>
  <text x="120" y="187" class="node-text-en">Order Processing</text>
  
  <rect x="30" y="220" width="80" height="40" rx="6" fill="#5CB85C" filter="url(#shadow)"/>
  <text x="70" y="235" class="node-text">线下订单</text>
  <text x="70" y="247" class="node-text-en">Offline</text>
  
  <rect x="130" y="220" width="80" height="40" rx="6" fill="#5CB85C" filter="url(#shadow)"/>
  <text x="170" y="235" class="node-text">线上商品</text>
  <text x="170" y="247" class="node-text-en">Online</text>
  
  <rect x="70" y="280" width="100" height="40" rx="6" fill="#4A90E2" filter="url(#shadow)"/>
  <text x="120" y="295" class="node-text">生成订单</text>
  <text x="120" y="307" class="node-text-en">Order Generated</text>
  
  <!-- 配置准备 Section -->
  <text x="320" y="85" class="section-title">配置准备</text>
  
  <rect x="250" y="180" width="140" height="40" rx="6" fill="#2ECC71" filter="url(#shadow)"/>
  <text x="320" y="195" class="node-text">商户分润配置</text>
  <text x="320" y="207" class="node-text-en">Merchant Config</text>
  
  <rect x="250" y="240" width="140" height="40" rx="6" fill="#2ECC71" filter="url(#shadow)"/>
  <text x="320" y="255" class="node-text">商品/库存配置</text>
  <text x="320" y="267" class="node-text-en">Product Config</text>
  
  <!-- 支付分润计算 Section -->
  <text x="550" y="85" class="section-title">支付分润计算</text>
  
  <rect x="480" y="100" width="140" height="40" rx="6" fill="#F39C12" filter="url(#shadow)"/>
  <text x="550" y="115" class="node-text">支付完成</text>
  <text x="550" y="127" class="node-text-en">Payment Complete</text>
  
  <rect x="480" y="160" width="140" height="40" rx="6" fill="#F39C12" filter="url(#shadow)"/>
  <text x="550" y="175" class="node-text">查找分润关系链</text>
  <text x="550" y="187" class="node-text-en">Find Profit Chain</text>
  
  <rect x="480" y="220" width="140" height="40" rx="6" fill="#F39C12" filter="url(#shadow)"/>
  <text x="550" y="235" class="node-text">获取分润配置</text>
  <text x="550" y="247" class="node-text-en">Get Profit Config</text>
  
  <rect x="480" y="280" width="140" height="40" rx="6" fill="#F39C12" filter="url(#shadow)"/>
  <text x="550" y="295" class="node-text">分润金额计算</text>
  <text x="550" y="307" class="node-text-en">Amount Calculation</text>
  
  <!-- 分润参与角色 Section -->
  <text x="350" y="375" class="section-title">分润参与角色</text>
  
  <rect x="100" y="395" width="500" height="40" rx="6" fill="#E74C3C" stroke="#C0392B" stroke-width="2" filter="url(#shadow)"/>
  <text x="350" y="410" class="node-text" style="font-size: 13px;">分润参与角色分配</text>
  <text x="350" y="422" class="node-text-en">Profit Participant Role Assignment</text>
  
  <!-- 具体角色 -->
  <rect x="130" y="455" width="80" height="40" rx="6" fill="#E91E63" filter="url(#shadow)"/>
  <text x="170" y="470" class="node-text">商户</text>
  <text x="170" y="482" class="node-text-en">Merchant</text>
  
  <rect x="260" y="455" width="120" height="40" rx="6" fill="#E91E63" filter="url(#shadow)"/>
  <text x="320" y="470" class="node-text">分销商多级</text>
  <text x="320" y="482" class="node-text-en">Multi-level Distributor</text>
  
  <rect x="430" y="455" width="80" height="40" rx="6" fill="#E91E63" filter="url(#shadow)"/>
  <text x="470" y="470" class="node-text">代理商</text>
  <text x="470" y="482" class="node-text-en">Agent</text>
  
  <!-- 详细分润项 -->
  <rect x="120" y="515" width="100" height="30" rx="5" fill="#AD1457" filter="url(#shadow)"/>
  <text x="170" y="532" class="node-text">商户分润收入</text>
  
  <rect x="250" y="515" width="80" height="30" rx="5" fill="#AD1457" filter="url(#shadow)"/>
  <text x="290" y="532" class="node-text">一级分润分</text>
  
  <rect x="250" y="555" width="80" height="30" rx="5" fill="#AD1457" filter="url(#shadow)"/>
  <text x="290" y="572" class="node-text">二级分润分</text>
  
  <rect x="250" y="595" width="80" height="30" rx="5" fill="#AD1457" filter="url(#shadow)"/>
  <text x="290" y="612" class="node-text">更多层级...</text>
  
  <rect x="360" y="515" width="80" height="30" rx="5" fill="#AD1457" filter="url(#shadow)"/>
  <text x="400" y="532" class="node-text">省级代理商</text>
  
  <rect x="360" y="555" width="80" height="30" rx="5" fill="#AD1457" filter="url(#shadow)"/>
  <text x="400" y="572" class="node-text">市级代理商</text>
  
  <rect x="360" y="595" width="80" height="30" rx="5" fill="#AD1457" filter="url(#shadow)"/>
  <text x="400" y="612" class="node-text">县级代理商</text>
  
  <!-- 分润结算 Section -->
  <text x="725" y="375" class="section-title">分润结算</text>
  
  <rect x="650" y="395" width="150" height="40" rx="6" fill="#9C27B0" filter="url(#shadow)"/>
  <text x="725" y="410" class="node-text">各类分润结算与承兑</text>
  <text x="725" y="422" class="node-text-en">Profit Settlement</text>
  
  <!-- 生态价值分配 Section -->
  <text x="1000" y="205" class="section-title">生态价值分配</text>
  
  <rect x="930" y="230" width="140" height="40" rx="6" fill="#00BCD4" filter="url(#shadow)"/>
  <text x="1000" y="245" class="node-text">生态价值分配</text>
  <text x="1000" y="257" class="node-text-en">Ecological Value Distribution</text>
  
  <rect x="1100" y="180" width="100" height="35" rx="6" fill="#FFC107" filter="url(#shadow)"/>
  <text x="1150" y="193" class="node-text">计算方式</text>
  <text x="1150" y="205" class="node-text-en">选择</text>
  
  <rect x="900" y="300" width="100" height="35" rx="6" fill="#4CAF50" filter="url(#shadow)"/>
  <text x="950" y="313" class="node-text">曲线价值计算</text>
  <text x="950" y="325" class="node-text-en">Curve Value Calc</text>
  
  <rect x="1050" y="300" width="100" height="35" rx="6" fill="#4CAF50" filter="url(#shadow)"/>
  <text x="1100" y="313" class="node-text">数字积分生成</text>
  <text x="1100" y="325" class="node-text-en">Digital Points</text>
  
  <rect x="1050" y="370" width="100" height="35" rx="6" fill="#2E7D32" filter="url(#shadow)"/>
  <text x="1100" y="383" class="node-text">分润流程完成</text>
  <text x="1100" y="395" class="node-text-en">Process Completed</text>
  
  <!-- 连接线 -->
  <line x1="120" y1="140" x2="120" y2="160" class="arrow"/>
  <line x1="120" y1="200" x2="70" y2="220" class="arrow"/>
  <line x1="120" y1="200" x2="170" y2="220" class="arrow"/>
  <line x1="70" y1="260" x2="120" y2="280" class="arrow"/>
  <line x1="170" y1="260" x2="120" y2="280" class="arrow"/>
  <line x1="170" y1="300" x2="250" y2="200" class="arrow"/>
  <line x1="170" y1="300" x2="250" y2="260" class="arrow"/>
  <line x1="320" y1="220" x2="320" y2="240" class="arrow"/>
  <line x1="390" y1="260" x2="480" y2="120" class="arrow"/>
  <line x1="550" y1="140" x2="550" y2="160" class="arrow"/>
  <line x1="550" y1="200" x2="550" y2="220" class="arrow"/>
  <line x1="550" y1="260" x2="550" y2="280" class="arrow"/>
  <line x1="550" y1="320" x2="350" y2="395" class="arrow"/>
  <line x1="350" y1="435" x2="170" y2="455" class="arrow"/>
  <line x1="350" y1="435" x2="320" y2="455" class="arrow"/>
  <line x1="350" y1="435" x2="470" y2="455" class="arrow"/>
  <line x1="600" y1="415" x2="650" y2="415" class="arrow"/>
  <line x1="170" y1="495" x2="170" y2="515" class="arrow"/>
  <line x1="320" y1="495" x2="290" y2="515" class="arrow"/>
  <line x1="290" y1="545" x2="290" y2="555" class="arrow"/>
  <line x1="290" y1="585" x2="290" y2="595" class="arrow"/>
  <line x1="470" y1="495" x2="400" y2="515" class="arrow"/>
  <line x1="400" y1="545" x2="400" y2="555" class="arrow"/>
  <line x1="400" y1="585" x2="400" y2="595" class="arrow"/>
  <line x1="170" y1="532" x2="650" y2="415" class="arrow"/>
  <line x1="290" y1="532" x2="650" y2="415" class="arrow"/>
  <line x1="290" y1="572" x2="650" y2="415" class="arrow"/>
  <line x1="290" y1="612" x2="650" y2="415" class="arrow"/>
  <line x1="400" y1="532" x2="650" y2="415" class="arrow"/>
  <line x1="400" y1="572" x2="650" y2="415" class="arrow"/>
  <line x1="400" y1="612" x2="650" y2="415" class="arrow"/>
  <line x1="800" y1="415" x2="930" y2="250" class="arrow"/>
  <line x1="1070" y1="250" x2="1150" y2="215" class="arrow"/>
  <line x1="1000" y1="270" x2="950" y2="300" class="optional-arrow"/>
  <line x1="1000" y1="270" x2="1100" y2="300" class="arrow"/>
  <line x1="950" y1="335" x2="1100" y2="300" class="arrow"/>
  <line x1="1100" y1="335" x2="1100" y2="370" class="arrow"/>
  
  <!-- 注释 -->
  <text x="100" y="670" class="note-text">注：曲线价值计算方可选参数，生态价值分配可直接生成数字积分</text>
  
  <!-- 图例 -->
  <text x="100" y="700" class="legend-text">图例说明：</text>
  <rect x="100" y="715" width="15" height="12" rx="2" fill="#4A90E2"/>
  <text x="125" y="723" class="legend-text">订单处理</text>
  <rect x="180" y="715" width="15" height="12" rx="2" fill="#2ECC71"/>
  <text x="205" y="723" class="legend-text">配置准备</text>
  <rect x="260" y="715" width="15" height="12" rx="2" fill="#F39C12"/>
  <text x="285" y="723" class="legend-text">分润计算</text>
  <rect x="340" y="715" width="15" height="12" rx="2" fill="#E91E63"/>
  <text x="365" y="723" class="legend-text">参与角色</text>
  <rect x="420" y="715" width="15" height="12" rx="2" fill="#9C27B0"/>
  <text x="445" y="723" class="legend-text">分润结算</text>
  <rect x="500" y="715" width="15" height="12" rx="2" fill="#00BCD4"/>
  <text x="525" y="723" class="legend-text">生态价值分配</text>
  <line x1="610" y1="721" x2="630" y2="721" class="optional-arrow"/>
  <text x="640" y="723" class="legend-text">可选路径</text>
  
</svg> 